<?xml version="1.0" encoding="UTF-8"?>
<svg id="Layer_1" xmlns="http://www.w3.org/2000/svg" version="1.1" viewBox="0 0 1080 1080">
  <!-- Generator: Adobe Illustrator 29.7.1, SVG Export Plug-In . SVG Version: 2.1.1 Build 8)  -->
  <defs>
    <style>
      .st0 {
        fill: #232323;
      }
    </style>
  </defs>
  <path class="st0" d="M789.08,895.46c-19.05,19.47-35.66,33.52-49.83,42.27-14.23,8.75-29.88,13.1-46.97,13.1-23.69,0-42.74-6.37-57.09-19.23-14.41-12.8-21.61-29.71-21.61-50.72,0-8.75,1.49-17.09,4.52-24.94,2.98.12,5.95.18,8.99.18,21.31.06,42.92-2.5,64.23-7.92-.3,3.04-.48,6.13-.48,9.35,0,16.73,4.17,30.42,12.56,41.14,8.33,10.66,18.93,16.01,31.73,16.01,8.57,0,16.85-2.14,24.83-6.43,7.98-4.23,17.03-11.25,27.09-20.95l.42-86.26c.3-.18.54-.42.83-.6.12-.12.24-.18.36-.3l.42,95.31Z"/>
  <g>
    <path class="st0" d="M298.18,583.28c-8.69-8.33-13.1-19.7-13.1-34.11V142.27h-5.83c-3.87,6.25-10.66,11.49-20.36,15.78-10.54,4.29-25.66,6.37-45.48,6.37h-59.47v5.83c13.99,0,25.36,4.29,34.11,12.86,8.75,8.51,13.1,19.82,13.1,33.81v332.24c0,14.41-4.35,25.78-13.1,34.11-8.75,8.39-20.12,12.56-34.11,12.56v5.77h178.35v-5.77c-13.99,0-25.36-4.17-34.11-12.56Z"/>
    <path class="st0" d="M363.79,310.75v290.87h12.38c2.38-44.23,17.38-86.92,42.98-123.29v-167.58h-55.36ZM417.37,201.21l-.48-.42c-19.41-20.78-61.67-7.26-59.83,22.68,1.96,19.23,28.81,33.22,47.45,24.71,19.65-7.14,30.12-31.31,12.86-46.97Z"/>
    <path class="st0" d="M526.96,835.87v106.8h55.42v-90.55c-19.11-3.33-37.74-8.81-55.42-16.25ZM153.94,651.8v290.87h55.96v-290.87h-55.96ZM209.9,692.1c3.99-5.6,8.33-10.72,13.1-15.54,9.94-9.88,21.49-17.5,34.71-22.74,13.22-5.24,27.56-7.86,43.1-7.86,16.37,0,31.13,2.32,44.35,7.02,13.16,4.64,24.47,11.55,33.81,20.66,2.38,2.38,4.7,4.88,6.79,7.56l1.85,5.71c2.14,6.43,4.52,12.86,7.26,19.23,1.61,3.69,3.27,7.32,5,10.89,2.2,4.52,4.52,8.99,7.02,13.28,1.19,7.2,1.79,14.88,1.79,22.92v189.43h-55.36v-177.22c0-22.92-5.54-40.12-16.61-51.55-11.07-11.49-27.92-17.2-50.42-17.2-17.5,0-33.46,4.05-47.8,12.26-11.13,6.31-20.66,14.17-28.57,23.57"/>
  </g>
  <path class="st0" d="M841.23,665.49c-20.78-18.45-47.68-27.68-80.72-27.68-19.47,0-37.98,3.27-55.66,9.88-17.68,6.61-33.34,15.95-46.91,27.98-13.63,12.08-23.75,26.07-30.36,41.97l62.98,36.19c3.51-33.81,10.36-60.25,20.72-79.29,10.24-19.05,22.8-28.75,37.56-29.17,12.44,0,22.15,6.55,29.17,19.53,6.96,13.04,10.48,30.6,10.48,52.74v43.76l.18,38.75c34.59-27.68,60.36-63.52,75.37-103.23-5.18-12.08-12.74-22.5-22.8-31.43ZM387.6,686.92c-.65-1.9-1.25-3.81-1.85-5.71"/>
  <path class="st0" d="M847.48,132.57c-17.5-2.32-34.23-3.39-50.24-3.39-201.81,0-287.06,171.21-303.01,208-1.79,4.05-.3,8.63,3.45,10.89l7.44,3.04,4.46-4.76c22.68-24.35,70.07-16.67,115.91-9.23,34.59,5.66,70.19,11.43,97.45,3.69,3.45-.95,6.79-2.14,9.94-3.63,63.64-29.17,118.47-188.18,120.79-194.96l2.86-8.45-9.05-1.19Z"/>
  <path class="st0" d="M788.48,768.96l-.18,31.49-.42,86.86M789.08,895.46c2.68,16.73,9.41,30.12,20.12,40.24,10.66,10.06,23.4,15.12,38.16,15.12,13.57,0,27.56-4.29,41.97-12.8,14.35-8.57,26.61-19.65,36.73-33.22l-4.64-4.11c-8.57,9.7-17.32,14.59-26.25,14.59-15.18,0-22.74-11.25-22.74-33.81v-140.49c0-16.49-2.8-31.19-8.39-44.05-5.18-12.08-12.74-22.5-22.8-31.43-20.78-18.45-47.68-27.68-80.72-27.68-19.47,0-37.98,3.27-55.66,9.88-17.68,6.61-33.34,15.95-46.91,27.98-13.63,12.08-23.75,26.07-30.36,41.97l62.98,36.19c3.51-33.81,10.36-60.25,20.72-79.3,10.24-19.05,22.8-28.75,37.56-29.17,12.44,0,22.15,6.55,29.17,19.53,6.97,13.04,10.48,30.6,10.48,52.74v43.76"/>
</svg>